<svg width="40" height="41" viewBox="0 0 40 41" fill="none" xmlns="http://www.w3.org/2000/svg">
<path d="M24.1663 27.1668C24.8418 27.1668 25.5071 27.331 26.105 27.6452C26.7029 27.9595 27.2155 28.4144 27.5985 28.9707C27.9815 29.5271 28.2235 30.1682 28.3037 30.8389C28.3839 31.5096 28.2998 32.1897 28.0588 32.8206C27.8177 33.4516 27.4268 34.0145 26.9199 34.4608C26.4129 34.9072 25.805 35.2236 25.1486 35.3828C24.4922 35.542 23.8069 35.5392 23.1518 35.3747C22.4967 35.2102 21.8914 34.8889 21.388 34.4385C21.0725 34.1557 20.8765 33.7634 20.8399 33.3413C20.8033 32.9192 20.9289 32.499 21.1911 32.1661C21.4532 31.8333 21.8323 31.6127 22.2512 31.5494C22.6702 31.4861 23.0975 31.5847 23.4463 31.8252L23.6113 31.9552C23.7121 32.0451 23.8332 32.1092 23.9642 32.1419C24.0952 32.1747 24.2322 32.1751 24.3634 32.1432C24.4946 32.1112 24.6161 32.0479 24.7174 31.9586C24.8187 31.8693 24.8968 31.7567 24.9449 31.6305C24.993 31.5043 25.0098 31.3683 24.9937 31.2342C24.9776 31.1002 24.9292 30.972 24.8526 30.8608C24.776 30.7496 24.6735 30.6586 24.5539 30.5958C24.4344 30.533 24.3014 30.5002 24.1663 30.5002H11.6663C11.2243 30.5002 10.8004 30.3246 10.4878 30.012C10.1753 29.6994 9.99967 29.2755 9.99967 28.8335C9.99967 28.3915 10.1753 27.9675 10.4878 27.655C10.8004 27.3424 11.2243 27.1668 11.6663 27.1668H24.1663ZM19.1663 3.8335C21.3703 3.83329 23.522 4.50513 25.3343 5.75939C27.1466 7.01366 28.5334 8.79071 29.3097 10.8535C31.1134 11.349 32.742 12.3404 34.0107 13.715C35.2793 15.0896 36.1371 16.7924 36.4867 18.63C36.8362 20.4676 36.6636 22.3664 35.9883 24.1108C35.313 25.8552 34.1621 27.3753 32.6663 28.4985C32.3122 28.7475 31.8751 28.849 31.4475 28.7814C31.0199 28.7139 30.6354 28.4826 30.3753 28.1365C30.1152 27.7905 30 27.3568 30.054 26.9272C30.108 26.4977 30.327 26.1061 30.6647 25.8352C31.7097 25.0511 32.5014 23.9772 32.9414 22.7471C33.3815 21.5169 33.4504 20.1845 33.1397 18.9155C32.829 17.6465 32.1524 16.4967 31.1939 15.6089C30.2353 14.7211 29.0371 14.1345 27.748 13.9218C27.4318 13.87 27.1373 13.7282 26.8996 13.5133C26.6619 13.2984 26.4913 13.0196 26.408 12.7102C25.9177 10.8811 24.7537 9.30519 23.1496 8.29881C21.5455 7.29244 19.6201 6.93011 17.7599 7.28455C15.8998 7.63899 14.2425 8.68396 13.1209 10.2097C11.9993 11.7354 11.4963 13.629 11.713 15.5102C11.758 15.912 11.6553 16.3166 11.4241 16.6483C11.1929 16.9801 10.8489 17.2165 10.4563 17.3135C9.47176 17.5591 8.58525 18.0986 7.91467 18.8602C7.76978 19.0243 7.59398 19.1583 7.3973 19.2545C7.20062 19.3507 6.98691 19.4073 6.76838 19.4209C6.32705 19.4484 5.89286 19.2995 5.56134 19.0068C5.22982 18.7142 5.02812 18.3019 5.00062 17.8605C4.97311 17.4192 5.12205 16.985 5.41467 16.6535C6.22076 15.7403 7.21681 15.0145 8.33301 14.5268C8.36983 11.678 9.52743 8.95831 11.5551 6.95685C13.5828 4.95539 16.3173 3.83326 19.1663 3.8335ZM18.333 15.5002C19.6591 15.5002 20.9309 16.0269 21.8685 16.9646C22.8062 17.9023 23.333 19.1741 23.333 20.5002C23.333 21.8262 22.8062 23.098 21.8685 24.0357C20.9309 24.9734 19.6591 25.5002 18.333 25.5002H4.99967C4.55765 25.5002 4.13372 25.3246 3.82116 25.012C3.5086 24.6994 3.33301 24.2755 3.33301 23.8335C3.33301 23.3915 3.5086 22.9675 3.82116 22.655C4.13372 22.3424 4.55765 22.1668 4.99967 22.1668H18.333C18.6175 22.1668 18.8972 22.094 19.1455 21.9553C19.3939 21.8167 19.6026 21.6167 19.7518 21.3746C19.9011 21.1324 19.9859 20.8561 19.9981 20.5719C20.0104 20.2878 19.9497 20.0052 19.8218 19.7511C19.694 19.497 19.5032 19.2798 19.2677 19.1203C19.0322 18.9608 18.7598 18.8642 18.4764 18.8397C18.193 18.8152 17.9081 18.8637 17.6487 18.9804C17.3894 19.0972 17.1642 19.2784 16.9947 19.5068L16.888 19.6685C16.6666 20.0511 16.3022 20.33 15.8751 20.4439C15.448 20.5579 14.9931 20.4975 14.6105 20.276C14.2279 20.0545 13.949 19.6902 13.8351 19.2631C13.7211 18.8359 13.7816 18.3811 14.003 17.9985C14.442 17.2387 15.0733 16.6079 15.8334 16.1693C16.5934 15.7308 17.4555 15.5 18.333 15.5002Z" fill="white"/>
</svg>
