<svg width="40" height="40" viewBox="0 0 40 40" fill="none" xmlns="http://www.w3.org/2000/svg">
<path d="M19.9997 3.33337C29.2047 3.33337 36.6663 10.795 36.6663 20C36.6663 29.205 29.2047 36.6667 19.9997 36.6667C10.7947 36.6667 3.33301 29.205 3.33301 20C3.33301 10.795 10.7947 3.33337 19.9997 3.33337ZM19.9997 6.66671C16.4635 6.66671 13.0721 8.07147 10.5716 10.572C8.0711 13.0724 6.66634 16.4638 6.66634 20C6.66634 23.5363 8.0711 26.9276 10.5716 29.4281C13.0721 31.9286 16.4635 33.3334 19.9997 33.3334C23.5359 33.3334 26.9273 31.9286 29.4278 29.4281C31.9283 26.9276 33.333 23.5363 33.333 20C33.333 16.4638 31.9283 13.0724 29.4278 10.572C26.9273 8.07147 23.5359 6.66671 19.9997 6.66671ZM28.2497 11.75C28.908 12.41 28.9113 13.3834 28.8097 14.2667L28.748 14.7384C28.4813 16.605 27.7397 19.3634 26.678 21.665C26.1613 22.785 25.5113 23.9167 24.713 24.715C23.9163 25.51 22.7863 26.1617 21.663 26.6784C19.363 27.74 16.6047 28.4817 14.738 28.7484L14.268 28.81C13.3847 28.91 12.4047 28.9034 11.7513 28.25C11.1563 27.655 11.0963 26.7917 11.1663 25.975L11.2197 25.4917L11.2513 25.2617C11.518 23.395 12.2597 20.6367 13.3213 18.335C13.838 17.215 14.488 16.0834 15.2863 15.285C16.083 14.4884 17.2147 13.8384 18.3363 13.3217C20.6363 12.26 23.3947 11.5184 25.2613 11.2517L25.7313 11.19C26.6147 11.09 27.5897 11.09 28.248 11.75H28.2497ZM25.3963 14.6034C23.883 14.8617 21.5247 15.52 19.7297 16.3484C18.7347 16.8084 18.0247 17.2617 17.643 17.6434C17.2597 18.025 16.808 18.735 16.348 19.73C15.5213 21.525 14.8613 23.8834 14.603 25.3967C16.1163 25.1384 18.4747 24.48 20.2697 23.6517C21.2647 23.1917 21.9747 22.7384 22.3563 22.3567C22.7397 21.975 23.193 21.265 23.6513 20.27C24.478 18.475 25.1397 16.1167 25.3963 14.6034ZM19.9997 18.3334C20.4417 18.3334 20.8656 18.509 21.1782 18.8215C21.4907 19.1341 21.6663 19.558 21.6663 20C21.6663 20.4421 21.4907 20.866 21.1782 21.1786C20.8656 21.4911 20.4417 21.6667 19.9997 21.6667C19.5576 21.6667 19.1337 21.4911 18.8212 21.1786C18.5086 20.866 18.333 20.4421 18.333 20C18.333 19.558 18.5086 19.1341 18.8212 18.8215C19.1337 18.509 19.5576 18.3334 19.9997 18.3334Z" fill="white"/>
</svg>
