<svg width="40" height="40" viewBox="0 0 40 40" fill="none" xmlns="http://www.w3.org/2000/svg">
<path fill-rule="evenodd" clip-rule="evenodd" d="M19.9997 3.33337C29.2047 3.33337 36.6663 10.795 36.6663 20C36.6663 27.1667 32.143 33.2767 25.7963 35.63C25.689 35.689 25.5756 35.7359 25.458 35.77L25.2997 35.8067C23.5912 36.3783 21.8012 36.6687 19.9997 36.6667C10.7947 36.6667 3.33301 29.205 3.33301 20C3.33301 10.795 10.7947 3.33337 19.9997 3.33337ZM24.8497 7.57671L24.5563 9.04504C24.3673 9.99007 23.9091 10.8603 23.237 11.5511C22.5649 12.2418 21.7075 12.7236 20.768 12.9384L20.0997 13.0917C19.6851 13.1862 19.3224 13.4356 19.0857 13.7888C18.8489 14.142 18.7562 14.5723 18.8263 14.9917L19.118 16.7384C19.2109 17.2982 19.1594 17.8726 18.9682 18.4069C18.777 18.9413 18.4526 19.418 18.0256 19.7919C17.5987 20.1658 17.0833 20.4245 16.5284 20.5434C15.9735 20.6624 15.3974 20.6377 14.8547 20.4717L12.7047 19.815C11.6806 19.502 10.7841 18.8684 10.1471 18.0076C9.51011 17.1468 9.16632 16.1042 9.16634 15.0334V12.225C7.58826 14.4221 6.71579 17.0472 6.66477 19.7518C6.61374 22.4565 7.38657 25.1126 8.88065 27.3676C10.3747 29.6227 12.5194 31.3699 15.0299 32.3774C17.5403 33.3849 20.2979 33.605 22.9363 33.0084L21.968 29.6217C21.8898 29.3495 21.7435 29.1017 21.543 28.9017L19.4797 26.8367C19.231 26.5882 19.0375 26.2899 18.9119 25.9616C18.7863 25.6332 18.7314 25.282 18.7507 24.9309C18.7701 24.5798 18.8633 24.2368 19.0242 23.9242C19.1851 23.6116 19.4102 23.3364 19.6847 23.1167L22.293 21.0317C22.7903 20.6339 23.3911 20.3869 24.0243 20.3198C24.6576 20.2528 25.2968 20.3685 25.8663 20.6534L28.3163 21.8784C29.0525 22.2465 29.6864 22.7907 30.1617 23.4626C30.6371 24.1345 30.9392 24.9133 31.0413 25.73L31.2247 27.1984C32.2897 25.5368 32.9728 23.6597 33.2246 21.7022C33.4764 19.7448 33.2907 17.7558 32.6809 15.8788C32.0711 14.0018 31.0523 12.2835 29.6981 10.8479C28.3438 9.41222 26.6879 8.29498 24.8497 7.57671ZM24.3747 23.635L22.4947 25.1384L23.9013 26.5434C24.4149 27.0576 24.8102 27.6775 25.0597 28.36L25.173 28.7067L26.078 31.87C26.6613 31.57 27.2213 31.2284 27.7513 30.85L28.273 30.4567L27.7347 26.1434C27.7049 25.9058 27.6243 25.6774 27.4983 25.4738C27.3723 25.2702 27.204 25.0961 27.0047 24.9634L26.8247 24.86L24.3747 23.635ZM19.9997 6.66671C17.32 6.66252 14.7019 7.46958 12.4897 8.98171C12.4963 9.04171 12.4997 9.10337 12.4997 9.16671V15.0334C12.4994 15.3904 12.6137 15.738 12.8258 16.0252C13.0379 16.3123 13.3367 16.5238 13.678 16.6284L15.8297 17.285L15.538 15.5384C15.3284 14.281 15.6069 12.9911 16.3166 11.9323C17.0263 10.8734 18.1137 10.1256 19.3563 9.84171L20.0247 9.69004C20.3382 9.61837 20.6244 9.45749 20.8485 9.22681C21.0727 8.99614 21.2253 8.70553 21.288 8.39004L21.6147 6.76337C21.0788 6.69882 20.5395 6.66654 19.9997 6.66671Z" fill="white"/>
</svg>
