<svg width="40" height="40" viewBox="0 0 40 40" fill="none" xmlns="http://www.w3.org/2000/svg">
<path fill-rule="evenodd" clip-rule="evenodd" d="M30 5C31.3261 5 32.5979 5.52678 33.5355 6.46447C34.4732 7.40215 35 8.67392 35 10V30C35 31.3261 34.4732 32.5979 33.5355 33.5355C32.5979 34.4732 31.3261 35 30 35H10C8.67392 35 7.40215 34.4732 6.46447 33.5355C5.52678 32.5979 5 31.3261 5 30V10C5 8.67392 5.52678 7.40215 6.46447 6.46447C7.40215 5.52678 8.67392 5 10 5H30ZM30 8.33333H10C9.55797 8.33333 9.13405 8.50893 8.82149 8.82149C8.50893 9.13405 8.33333 9.55797 8.33333 10V30C8.33333 30.442 8.50893 30.866 8.82149 31.1785C9.13405 31.4911 9.55797 31.6667 10 31.6667H30C30.442 31.6667 30.866 31.4911 31.1785 31.1785C31.4911 30.866 31.6667 30.442 31.6667 30V10C31.6667 9.55797 31.4911 9.13405 31.1785 8.82149C30.866 8.50893 30.442 8.33333 30 8.33333ZM20 10C23.4667 10 26.1933 10.7467 27.7133 11.2833C29.1983 11.8117 29.9217 13.27 29.7583 14.65L29.7183 14.9083L28.515 20.925C28.1883 22.5533 26.4617 23.3417 25.05 22.7783C23.975 22.3483 22.2167 21.7717 20.4667 21.6783L19.9667 21.6667C18.0783 21.675 16.1133 22.3133 14.95 22.7783C13.6083 23.3133 11.9833 22.6283 11.545 21.1617L11.485 20.9233L10.2817 14.9083C9.99167 13.455 10.7083 11.8433 12.2867 11.285C14.7674 10.4268 17.375 9.99235 20 10ZM20 13.3333C17.135 13.3333 14.8667 13.925 13.5733 14.3667L14.5733 19.3617C15.7117 18.9617 17.2783 18.5183 18.9467 18.3783L20.1767 15.9217C20.2703 15.719 20.4036 15.5373 20.5688 15.3872C20.734 15.237 20.9276 15.1216 21.1383 15.0478C21.3489 14.9739 21.5722 14.9432 21.795 14.9573C22.0178 14.9714 22.2354 15.0301 22.4351 15.1299C22.6347 15.2297 22.8123 15.3686 22.9572 15.5384C23.1021 15.7081 23.2115 15.9052 23.2788 16.118C23.3461 16.3309 23.37 16.555 23.349 16.7772C23.328 16.9995 23.2626 17.2152 23.1567 17.4117L22.57 18.5867C23.6533 18.79 24.6433 19.0867 25.4283 19.3617L26.4283 14.3667C24.3558 13.6758 22.1846 13.3268 20 13.3333Z" fill="white"/>
</svg>
