<svg width="40" height="40" viewBox="0 0 40 40" fill="none" xmlns="http://www.w3.org/2000/svg">
<path fill-rule="evenodd" clip-rule="evenodd" d="M24.0163 3.82165C25.6307 4.22147 27.1758 4.86197 28.5996 5.72165C28.8851 5.89391 29.1123 6.14783 29.252 6.45058C29.3916 6.75334 29.4373 7.09102 29.383 7.41999C29.1946 8.56832 29.4813 9.44665 30.0163 9.98332C30.553 10.52 31.433 10.805 32.5796 10.6167C32.9089 10.562 33.2469 10.6075 33.55 10.7471C33.8531 10.8868 34.1073 11.1142 34.2796 11.4C35.1393 12.8238 35.7798 14.3689 36.1796 15.9833C36.2601 16.3072 36.2415 16.6478 36.1262 16.961C36.0109 17.2742 35.8042 17.5456 35.533 17.74C34.5863 18.4183 34.1663 19.24 34.1663 20C34.1663 20.76 34.5863 21.5833 35.533 22.2617C35.8039 22.4559 36.0104 22.727 36.1257 23.0399C36.241 23.3528 36.2598 23.693 36.1796 24.0167C35.7798 25.6311 35.1393 27.1762 34.2796 28.6C34.1073 28.8857 33.8531 29.1132 33.55 29.2528C33.2469 29.3925 32.9089 29.438 32.5796 29.3833C31.4313 29.195 30.5546 29.4817 30.018 30.0167C29.4813 30.5533 29.1946 31.4333 29.3846 32.58C29.4393 32.9092 29.3938 33.2472 29.2542 33.5503C29.1145 33.8534 28.8871 34.1076 28.6013 34.28C27.1764 35.1399 25.6302 35.7804 24.0146 36.18C23.691 36.2601 23.3507 36.2413 23.0379 36.126C22.725 36.0108 22.4539 35.8043 22.2596 35.5333C21.583 34.5866 20.7596 34.1666 19.9996 34.1666C19.2413 34.1666 18.4163 34.5866 17.7396 35.5333C17.5454 35.8043 17.2743 36.0108 16.9614 36.126C16.6485 36.2413 16.3083 36.2601 15.9846 36.18C14.3691 35.7804 12.8228 35.1399 11.398 34.28C11.1122 34.1076 10.8848 33.8534 10.7451 33.5503C10.6055 33.2472 10.56 32.9092 10.6146 32.58C10.8046 31.4333 10.5196 30.555 9.9813 30.0183C9.4463 29.4816 8.56797 29.195 7.41963 29.385C7.09067 29.4393 6.75299 29.3936 6.45023 29.254C6.14748 29.1144 5.89356 28.8871 5.7213 28.6016C4.86134 27.1768 4.22082 25.6306 3.8213 24.015C3.74118 23.6913 3.75997 23.3511 3.87525 23.0382C3.99053 22.7254 4.197 22.4543 4.46797 22.26C5.41297 21.5833 5.83463 20.76 5.83463 20C5.83463 19.2417 5.41297 18.4167 4.46797 17.74C4.197 17.5457 3.99053 17.2746 3.87525 16.9617C3.75997 16.6489 3.74118 16.3086 3.8213 15.985C4.22096 14.37 4.86147 12.8243 5.7213 11.4C5.89356 11.1145 6.14748 10.8873 6.45023 10.7476C6.75299 10.608 7.09067 10.5624 7.41963 10.6167C8.56797 10.805 9.4463 10.52 9.98297 9.98332C10.5196 9.44665 10.8046 8.56665 10.6163 7.41999C10.562 7.09102 10.6076 6.75334 10.7473 6.45058C10.8869 6.14783 11.1142 5.89391 11.3996 5.72165C12.8235 4.86199 14.3685 4.22149 15.983 3.82165C16.3069 3.74117 16.6475 3.75978 16.9607 3.87507C17.2739 3.99037 17.5452 4.19704 17.7396 4.46832C18.418 5.41332 19.2396 5.83499 19.9996 5.83499C20.7596 5.83499 21.583 5.41332 22.2613 4.46832C22.4556 4.19735 22.7267 3.99088 23.0395 3.8756C23.3524 3.76032 23.6926 3.74153 24.0163 3.82165ZM24.1863 7.33832C23.0913 8.43332 21.653 9.16665 19.9996 9.16665C18.3463 9.16665 16.908 8.43498 15.813 7.33665C15.1931 7.54176 14.5892 7.79245 14.0063 8.08665C14.008 9.63665 13.508 11.17 12.3396 12.34C11.1713 13.5083 9.6363 14.0083 8.0863 14.0067C7.79297 14.5867 7.54297 15.19 7.3363 15.8133C8.43463 16.9083 9.1663 18.3467 9.1663 20C9.1663 21.6533 8.43463 23.0917 7.3363 24.1867C7.54297 24.81 7.79463 25.415 8.0863 25.995C9.6363 25.9917 11.1696 26.4917 12.3396 27.6616C13.508 28.8283 14.008 30.3633 14.0063 31.9133C14.5846 32.2067 15.1896 32.4566 15.813 32.6633C16.908 31.565 18.3463 30.8333 19.9996 30.8333C21.653 30.8333 23.0913 31.5666 24.1863 32.6633C24.8068 32.4583 25.4112 32.2076 25.9946 31.9133C25.9913 30.3633 26.4913 28.83 27.6613 27.66C28.828 26.4917 30.363 25.9933 31.913 25.9933C32.2063 25.415 32.4563 24.81 32.663 24.1867C31.5646 23.0917 30.833 21.6533 30.833 20C30.833 18.3467 31.5663 16.9083 32.663 15.8133C32.4579 15.1934 32.2072 14.5895 31.913 14.0067C30.363 14.0083 28.8296 13.5083 27.6596 12.34C26.4913 11.1717 25.993 9.63665 25.993 8.08665C25.4101 7.79245 24.8062 7.54343 24.1863 7.33832ZM19.9996 13.3333C21.7677 13.3333 23.4634 14.0357 24.7137 15.2859C25.9639 16.5362 26.6663 18.2319 26.6663 20C26.6663 21.7681 25.9639 23.4638 24.7137 24.714C23.4634 25.9643 21.7677 26.6667 19.9996 26.6667C18.2315 26.6667 16.5358 25.9643 15.2856 24.714C14.0353 23.4638 13.333 21.7681 13.333 20C13.333 18.2319 14.0353 16.5362 15.2856 15.2859C16.5358 14.0357 18.2315 13.3333 19.9996 13.3333ZM19.9996 16.6667C19.1156 16.6667 18.2677 17.0178 17.6426 17.643C17.0175 18.2681 16.6663 19.1159 16.6663 20C16.6663 20.884 17.0175 21.7319 17.6426 22.357C18.2677 22.9821 19.1156 23.3333 19.9996 23.3333C20.8837 23.3333 21.7315 22.9821 22.3567 22.357C22.9818 21.7319 23.333 20.884 23.333 20C23.333 19.1159 22.9818 18.2681 22.3567 17.643C21.7315 17.0178 20.8837 16.6667 19.9996 16.6667Z" fill="white"/>
</svg>
